<svg xmlns="http://www.w3.org/2000/svg" width="742.04" height="408.44" viewBox="0 0 742.04 408.44">
  <g>
    <path d="M234.52,176.59a7.73,7.73,0,0,0,7.23-7.8V142.85a86.32,86.32,0,0,0-86.47-86.22c-47.65.13-86,39.4-86,87.05V246.91c0,47.66,38.32,86.92,86,87.06a86.32,86.32,0,0,0,86.47-86.22V224.38a10.32,10.32,0,0,0-10.32-10.32h-42V144.87c0-.22,0-.44,0-.66,0-.45,0-.9,0-1.36a33.92,33.92,0,1,0-15.19,28.23v43H132a10.32,10.32,0,0,0-10.32,10.32v23.37a33.9,33.9,0,0,0,34.4,33.86c18.58-.28,33.34-15.79,33.34-34.38v-18h35.93a1.23,1.23,0,0,1,1.23,1.23v17.27a71.11,71.11,0,0,1-71.23,71c-39.26-.11-70.83-32.46-70.83-71.72V142.85a71.11,71.11,0,0,1,71.23-71c39.26.11,70.83,32.45,70.83,71.72V169A7.6,7.6,0,0,0,234.52,176.59Zm-60.31,71.16a18.7,18.7,0,0,1-19.13,18.67,18.9,18.9,0,0,1-18.23-19V230.48a1.23,1.23,0,0,1,1.23-1.23h36.13Zm-18.68-86.22a18.68,18.68,0,1,1,18.68-18.68A18.7,18.7,0,0,1,155.53,161.53Z"/>
    <g>
      <path d="M299.78,129.32V60.68c0-3.86,1-4.85,4.74-4.85s4.86,1,4.86,4.85V124.8h33.44c3.75,0,4.74.88,4.74,4.63s-1,4.75-4.74,4.75h-38.3C300.77,134.18,299.78,133.18,299.78,129.32Z"/>
      <path d="M349.22,106.59C349.22,90.26,361,78,377.69,78c16.11,0,28.14,12.25,28.14,28.58v23.06c0,4.08-.88,5.08-4.64,5.08s-4.74-1-4.74-5.08v-3.53h-.22c-3.64,5.41-10.93,9.16-19.53,9.16C360.14,135.28,349.22,123,349.22,106.59Zm47.23,0c0-11.15-8.06-19.53-18.76-19.53-11.26,0-18.87,8.38-18.87,19.53s7.61,19.64,18.87,19.64C388.39,126.23,396.45,117.84,396.45,106.59Z"/>
      <path d="M355.62,197.21c0,12.25-3.09,20.64-8.39,25.94a29.08,29.08,0,0,1-40.17,0c-4.74-4.75-8.38-12.8-8.38-31.9s3.64-27.25,8.38-32a29.08,29.08,0,0,1,40.17,0c3.53,3.53,6.51,9.05,7.61,18.32.56,5.3-1.54,7.28-6.84,7.28-4.3,0-5.63-1.65-6.18-5.51-1-6.4-2.64-9.82-5-12.14-2-2-5.63-3.31-9.71-3.31s-7.73,1.32-9.71,3.31c-3.2,3.2-5.63,8.72-5.63,24.05s2.43,20.75,5.63,23.95c2,2,5.73,3.31,9.82,3.31s8.05-1.32,10-3.31,4.74-5.63,5.41-12.58h-11c-4,0-5.85-1.88-5.85-5.85s1.88-5.74,5.85-5.74h17.66C354.4,191,355.62,192.25,355.62,197.21Z"/>
      <path d="M360.14,202.51c0-16.33,12-28.58,28.47-28.58s28.25,12.25,28.25,28.58v21.63c0,5.19-1.21,6.51-6.4,6.51s-6.51-1.32-6.51-6.51v-2.32h-.22c-2.87,5-9.05,9.38-18.1,9.38C371,231.2,360.14,219.73,360.14,202.51Zm43.7,0c0-9-6.07-16.22-15.23-16.22-9.38.11-15.33,7.17-15.33,16.22s6,16.22,15.33,16.22C397.77,218.73,403.84,211.67,403.84,202.51Z"/>
      <path d="M423.71,166c-2-4.19-1.55-6.95,3.08-8.38l15.34-5.19a10.4,10.4,0,0,1,7.29,0l16.44,5.19c4.63,1.32,5.19,4,3.09,8.38-1.77,3.54-3.53,4.42-8.72,3l-14.45-4.41L432.53,169C427.24,170.4,425.47,169.63,423.71,166Zm-.23,57.72c0-5,1.22-6.29,6.52-6.29h11.8v-29.8H430c-5.3,0-6.52-1.32-6.52-6.4s1.22-6.29,6.52-6.29h16.88c5.74,0,7.28,1.44,7.28,7.29v35.2h12c5.3,0,6.51,1.32,6.51,6.29,0,5.18-1.21,6.4-6.51,6.4H430C424.7,230.1,423.48,228.88,423.48,223.7Z"/>
      <path d="M508.34,224.8c0,5.19-2,6.4-10.15,6.4-10.92,0-17.43-6.62-17.43-19.2V187.61h-7.4c-5.07,0-6.29-1.32-6.29-6.51,0-5,1.22-6.18,6.29-6.18h7.4v-7.17c0-4.63,1.32-5.85,6.4-5.85s6.51,1.22,6.51,5.85v7.17h9.38c5,0,6.29,1.22,6.29,6.18,0,5.19-1.33,6.51-6.29,6.51h-9.38v23.07c0,5.74,2.32,7.83,7.06,7.83C506.8,218.51,508.34,219.73,508.34,224.8Z"/>
      <path d="M567.38,213.21c0,1.22-.55,2.87-2,5.19-4,6.84-12.69,12.8-24.39,12.8-15.67,0-28.25-11.47-28.25-28.69,0-14.57,10.48-28.69,28.69-28.69,13.57,0,23.28,9.05,23.28,15.56,0,1.54-.66,2.76-2.53,4.08L531.74,216.3a15.35,15.35,0,0,0,8.72,2.65c8.16,0,12.47-5,15-8.94,1.11-1.87,2.21-3.09,3.76-3.09C561.75,206.92,567.38,210.12,567.38,213.21Zm-49.55-49c-.77-5,.22-6.4,5.41-7.17l29.35-5.19c4.86-.77,6.29.22,7.51,5,1.21,5.07.11,6.51-5.41,7.5l-29.35,5.19C520,170.4,518.5,169.41,517.83,164.22Zm7.29,38.29a16.7,16.7,0,0,0,.77,5.3l24.39-19.09a14,14,0,0,0-8.94-2.87C531.19,185.85,525.12,193.46,525.12,202.51Z"/>
      <path d="M299.78,317.63V256.06c0-6.73,1.66-8.39,8.39-8.39s8.38,1.66,8.38,8.39v53.63h23.73c6.84,0,8.61,1.65,8.61,8.16s-1.77,8.17-8.61,8.17H308.06C301.44,326,299.78,324.36,299.78,317.63Z"/>
      <path d="M355.07,343.12c-2.87-2.87-4.53-6.18-4.53-8.93,0-4,6.18-9.38,11.26-9.38a4.47,4.47,0,0,1,3.64,1.54c2.21,2.21,5.08,8.61,11.7,8.61,5.07,0,9.71-3.09,9.71-13.35V308.92h-.22c-3.09,5.73-8.06,10.48-17.22,10.48-11.92,0-20-7.51-20-23.62V278.35c0-6.4,1.65-8.06,8.27-8.06S366,272,366,278.35v12.58c0,10.37,4.53,13.24,9.71,13.24s11-2.87,11-12.14V278.35c0-6.4,1.65-8.06,8.27-8.06s8.28,1.66,8.28,8.06v43.26c0,17.21-8.61,29.35-27.26,29.35C365.77,351,359.37,347.43,355.07,343.12Z"/>
      <path d="M411.57,318.52V278.9c0-6.84,1.65-8.61,8.27-8.61s8.17,1.77,8.17,8.61v2.43h.22c2.43-6.29,9.71-11.59,18.1-11.59,6.18,0,7.94,3,7.94,9.93,0,6.73-1.76,8.72-5,8.72-3.76,0-6.85-1.66-12.36-1.66-4.86,0-8.83,2.1-8.83,10.16v21.63c0,6.4-1.66,8.05-8.28,8.05S411.57,324.92,411.57,318.52Z"/>
      <path d="M458.69,317.74c0-6.4,1.65-8.05,8.38-8.05h8.61V287.18h-8.61c-6.73,0-8.38-1.66-8.38-8.28,0-6.4,1.65-8.06,8.38-8.06h14.46c7.61,0,9.6,2,9.6,9.6v29.25h8.39c6.73,0,8.38,1.65,8.38,8.05,0,6.62-1.65,8.28-8.38,8.28H467.07C460.34,326,458.69,324.36,458.69,317.74Zm12.8-60a9.66,9.66,0,0,1,19.31,0,9.66,9.66,0,0,1-19.31,0Z"/>
      <path d="M550,342.9V318.07h-.33c-2.1,4-7.07,9.05-16.34,9.05-13,0-23.72-10.59-23.72-28.69s10.7-28.69,23.72-28.69c8.94,0,14.13,4.86,16.34,9.05H550v-.44c0-6.4,1.65-8.06,8.27-8.06s8.28,1.66,8.28,8.06V342.9c0,6.4-1.66,8.06-8.28,8.06S550,349.3,550,342.9Zm-.22-44.47c0-7.61-5-12.36-11.7-12.36s-11.7,4.75-11.7,12.36,5,12.36,11.7,12.36S549.73,306.05,549.73,298.43Z"/>
      <path d="M573.12,304.61V278.35c0-6.4,1.66-8.06,8.28-8.06s8.27,1.66,8.27,8.06V301c0,7.72,3.43,11,8.94,11,4.86,0,9.71-3.42,9.71-12.13V278.35c0-6.4,1.66-8.06,8.28-8.06s8.28,1.66,8.28,8.06V318c0,6.85-1.66,8.61-8.28,8.61s-8.17-1.76-8.17-8.61v-1.32h-.22c-3.42,5.3-8.38,10.48-17.32,10.48C580.07,327.12,573.12,319.62,573.12,304.61Z"/>
      <path d="M684,309.14a8.57,8.57,0,0,1-1.21,4.3c-4,7.94-13.35,13.68-25,13.68-15.67,0-28.25-11.47-28.25-28.69,0-14.56,10.48-28.69,28.69-28.69,14,0,24.17,9.6,24.17,16.44,0,1.66-.67,2.54-2.21,3.64l-27.92,20.86a12.12,12.12,0,0,0,4.41.88c6.07,0,9.27-2.64,12.36-6.73,1.33-1.76,2.76-3.42,4.64-3.42C677.17,301.41,684,305.49,684,309.14Zm-39.28-10.71a21.52,21.52,0,0,0,.22,2.65L663.71,286a13.71,13.71,0,0,0-5.74-1.1C650,284.86,644.73,290.38,644.73,298.43Z"/>
    </g>
  </g>
</svg>
